<?xml version="1.0" encoding="utf-8"?>
<!-- Generator: Adobe Illustrator 23.0.2, SVG Export Plug-In . SVG Version: 6.00 Build 0)  -->
<svg version="1.1" id="Layer_1" xmlns="http://www.w3.org/2000/svg" xmlns:xlink="http://www.w3.org/1999/xlink" x="0px" y="0px"
	 viewBox="0 0 50 50" style="enable-background:new 0 0 50 50;" xml:space="preserve">
<style type="text/css">
	.st0{fill:#30FFF3;}
	.st1{fill:#FFFFFF;}
</style>
<path class="st0" d="M42.76,50H7.24C3.24,50,0,46.76,0,42.76V7.24C0,3.24,3.24,0,7.24,0h35.53c4,0,7.24,3.24,7.24,7.24v35.53
	C50,46.76,46.76,50,42.76,50z"/>
<path class="st1" d="M43.08,28.16H8.22c-1.07,0-1.94-0.87-1.94-1.94v-3.81c0-1.07,0.87-1.94,1.94-1.94h34.87
	c1.07,0,1.94,0.87,1.94,1.94v3.81C45.02,27.29,44.15,28.16,43.08,28.16z"/>
<path class="st1" d="M21.8,43V8.19c0-1.09,0.88-1.97,1.97-1.97h3.76c1.09,0,1.97,0.88,1.97,1.97V43c0,1.09-0.88,1.97-1.97,1.97
	h-3.76C22.68,44.97,21.8,44.09,21.8,43z"/>
</svg>
