<?xml version="1.0" encoding="utf-8"?>
<!-- Generator: Adobe Illustrator 23.0.2, SVG Export Plug-In . SVG Version: 6.00 Build 0)  -->
<svg version="1.1" id="Layer_1" xmlns="http://www.w3.org/2000/svg" xmlns:xlink="http://www.w3.org/1999/xlink" x="0px" y="0px"
	 viewBox="0 0 50 50" style="enable-background:new 0 0 50 50;" xml:space="preserve">
<style type="text/css">
	.st0{fill:#1EA28A;}
	.st1{fill:#FFFFFF;}
</style>
<path class="st0" d="M42.76,50H7.24C3.24,50,0,46.76,0,42.76V7.24C0,3.24,3.24,0,7.24,0h35.53c4,0,7.24,3.24,7.24,7.24v35.53
	C50,46.76,46.76,50,42.76,50z"/>
<path class="st1" d="M18.32,41.47L7.24,30.39c-0.76-0.76-0.76-1.99,0-2.74l2.7-2.7c0.76-0.76,1.99-0.76,2.74,0l11.08,11.08
	c0.76,0.76,0.76,1.99,0,2.74l-2.7,2.7C20.31,42.22,19.08,42.22,18.32,41.47z"/>
<path class="st1" d="M15.61,36.02l22.96-22.96c0.76-0.76,1.99-0.76,2.74,0l2.7,2.7c0.76,0.76,0.76,1.99,0,2.74L21.05,41.47
	c-0.76,0.76-1.99,0.76-2.74,0l-2.7-2.7C14.85,38.01,14.85,36.78,15.61,36.02z"/>
</svg>
