<svg width="50" height="50" xmlns="http://www.w3.org/2000/svg" xmlns:svg="http://www.w3.org/2000/svg">
	<style type="text/css">.st0{fill:#FFFFFF;}
		.st1{fill:#1EA28A;}</style>
	<g>
		<title>Layer 1</title>
		<path stroke="#1ea28a" class="st0" d="m42.18,49.02441l-34.2278,0c-3.85448,0 -6.97661,-3.11356 -6.97661,-6.95747l0,-34.13389c0,-3.84391 3.12213,-6.95747 6.97661,-6.95747l34.23744,0c3.85448,0 6.97661,3.11356 6.97661,6.95747l0,34.14351c-0.00963,3.83429 -3.13177,6.94786 -6.98625,6.94786z" id="svg_1" fill="black" stroke-width="2"/>
		<path class="st1" d="m43.08,28.16l-34.86,0c-1.07,0 -1.94,-0.87 -1.94,-1.94l0,-3.81c0,-1.07 0.87,-1.94 1.94,-1.94l34.87,0c1.07,0 1.94,0.87 1.94,1.94l0,3.81c-0.01,1.07 -0.88,1.94 -1.95,1.94z" id="svg_2" fill="black" stroke-width="0"/>
		<path class="st1" d="m21.8,43l0,-34.81c0,-1.09 0.88,-1.97 1.97,-1.97l3.76,0c1.09,0 1.97,0.88 1.97,1.97l0,34.81c0,1.09 -0.88,1.97 -1.97,1.97l-3.76,0c-1.09,0 -1.97,-0.88 -1.97,-1.97z" id="svg_3" fill="black" stroke-width="0"/>
	</g>
</svg>